<svg width="171" height="40" viewBox="0 0 171 40" fill="none" xmlns="http://www.w3.org/2000/svg">
<path d="M66.9277 20.4946V24.4937H57.9727V33.5H52.7603V11.1123H68.5V15.1113H57.9727V20.4946H66.9277ZM76.0366 16.8545V33.5H70.8242V16.8545H76.0366ZM76.0366 9.50586V12.9922H70.8242V9.50586H76.0366ZM83.7954 16.8545L85.8291 21.7593H85.9146L88.0166 16.8545H93.8442L89.0249 25.0918L94.0151 33.5H88.1875L85.9829 28.4414H85.8804L83.6758 33.5H77.8481L82.8384 25.0918L78.002 16.8545H83.7954ZM96.4077 12.7529H101.586V16.8887H104.406V20.4946H101.586V28.1167C101.586 29.2332 102.036 29.7915 102.936 29.7915C103.494 29.7915 103.996 29.7402 104.44 29.6377L104.816 33.4829C103.756 33.7336 102.691 33.8589 101.62 33.8589C99.877 33.8589 98.5724 33.3975 97.7065 32.4746C96.8407 31.5518 96.4077 30.1105 96.4077 28.1509V20.4946H94.0664V16.8887H96.4077V12.7529ZM112.233 33.8589C110.467 33.8589 109.105 33.3006 108.148 32.1841C107.191 31.0562 106.713 29.3415 106.713 27.04V16.8887H111.908V27.0742C111.908 28.9313 112.586 29.8599 113.942 29.8599C115.047 29.8599 115.902 29.5522 116.505 28.937V16.8887H121.701V33.5342H117.155L116.83 31.5688C115.725 33.0955 114.193 33.8589 112.233 33.8589ZM129.75 33.5H124.538V16.8545H129.442L129.613 19.2983C130.365 17.464 131.505 16.5469 133.031 16.5469C133.578 16.5469 134.057 16.6095 134.467 16.7349L133.937 21.4346L132.057 21.4175C130.895 21.4175 130.126 21.8049 129.75 22.5796V33.5ZM146.43 25.5703V25.2456C146.43 23.6733 146.236 22.5055 145.849 21.7422C145.461 20.9674 144.783 20.5801 143.815 20.5801C142.676 20.5801 141.872 20.9902 141.405 21.8105V28.8003C141.872 29.5067 142.641 29.8599 143.712 29.8599C144.795 29.8599 145.518 29.5238 145.883 28.8516C146.247 28.1794 146.43 27.0856 146.43 25.5703ZM145.148 33.8589C143.382 33.8589 142.015 33.0955 141.046 31.5688L140.705 33.5342H136.193V9.54004H141.405V18.5122C142.374 17.2248 143.616 16.5811 145.131 16.5811C147.25 16.5811 148.862 17.3501 149.967 18.8882C151.072 20.4149 151.625 22.534 151.625 25.2456L151.608 25.5703C151.608 28.1566 151.055 30.1846 149.95 31.6543C148.856 33.124 147.256 33.8589 145.148 33.8589ZM158.427 25.0576V25.3823C158.427 28.3674 159.378 29.8599 161.281 29.8599C163.195 29.8599 164.152 28.3674 164.152 25.3823V25.0576C164.152 22.0726 163.195 20.5801 161.281 20.5801C159.378 20.5801 158.427 22.0726 158.427 25.0576ZM153.231 25.3823V25.0576C153.231 22.5055 153.944 20.4548 155.368 18.9053C156.792 17.3558 158.763 16.5811 161.281 16.5811C163.799 16.5811 165.77 17.3558 167.194 18.9053C168.618 20.4548 169.33 22.5055 169.33 25.0576V25.3823C169.33 27.9458 168.618 30.0023 167.194 31.5518C165.77 33.0898 163.799 33.8589 161.281 33.8589C158.763 33.8589 156.792 33.0898 155.368 31.5518C153.944 30.0137 153.231 27.9572 153.231 25.3823Z" fill="#171717"/>
<g clip-path="url(#clip0_294_1012)">
<path d="M0 1980 l0 -1980 2955 0 2955 0 0 1980 0 1980 -2955 0 -2955 0 0
-1980z m3353 1189 c226 -122 417 -226 422 -231 14 -13 -30 7 -464 206 -211 97
-387 176 -391 176 -4 0 -180 -79 -391 -176 -430 -197 -477 -218 -466 -208 22
22 845 462 860 459 9 -2 203 -103 430 -226z m-214 -502 c8 -7 29 -36 48 -65
28 -43 37 -51 51 -43 9 5 30 7 45 4 38 -7 37 -41 -3 -54 -34 -12 -36 -17 -15
-45 17 -22 20 -38 5 -29 -5 3 -10 1 -10 -5 0 -6 8 -10 17 -8 30 5 41 -54 34
-187 l-6 -120 -74 -3 c-59 -2 -76 0 -83 13 -8 13 -41 15 -228 15 -187 0 -220
-2 -228 -15 -7 -13 -24 -15 -83 -13 l-74 3 -6 120 c-7 133 4 192 34 187 9 -2
17 2 17 8 0 6 -4 8 -10 5 -15 -9 -12 7 5 29 21 28 19 33 -15 45 -38 13 -41 46
-5 55 14 4 35 2 46 -5 11 -6 22 -9 23 -7 1 2 14 23 28 48 37 65 56 78 118 83
99 8 353 -3 369 -16z m-12 -742 c34 -14 33 -10 12 -97 -12 -45 -39 -51 -76
-16 -30 28 -84 29 -114 3 -42 -39 -64 -105 -34 -105 9 0 15 -9 15 -23 0 -13 9
-32 21 -43 20 -18 22 -18 84 4 99 34 105 31 85 -37 -15 -55 -5 -47 34 25 26
47 34 69 26 74 -9 5 7 42 50 119 l62 111 68 0 68 0 6 -47 c3 -27 8 -78 12
-115 4 -48 10 -68 20 -68 16 0 20 -19 29 -112 l6 -68 -71 0 -70 0 -6 41 c-7
39 -8 40 -43 37 -30 -3 -39 -9 -56 -40 l-20 -38 -69 0 c-54 0 -67 3 -63 14 4
10 -6 9 -44 -5 -95 -37 -197 -18 -242 43 -11 14 -22 49 -25 77 -3 33 -9 51
-17 51 -18 0 -2 60 30 116 61 105 201 148 322 99z m-966 -57 l15 -73 48 73 49
72 75 0 c55 0 73 -3 69 -12 -2 -7 -14 -57 -27 -112 -16 -73 -19 -100 -11 -106
9 -5 6 -30 -10 -93 l-21 -87 -68 0 -68 0 14 61 c15 65 13 85 -6 50 -9 -17 -20
-21 -60 -21 -46 0 -50 2 -57 28 -6 23 -9 18 -23 -43 l-15 -70 -68 -3 -68 -3 7
28 c3 15 13 55 21 87 11 45 11 61 3 66 -9 6 -7 31 9 101 12 52 24 102 27 112
4 14 17 17 78 17 l72 0 15 -72z m456 20 c7 -27 15 -48 17 -48 1 0 18 22 37 50
l34 50 78 0 79 0 -42 -52 c-101 -126 -125 -159 -125 -171 0 -6 -9 -51 -20 -99
l-20 -88 -67 0 c-38 0 -68 3 -68 7 0 4 8 43 17 86 17 78 17 79 -4 96 -17 13
-83 184 -83 214 0 4 34 7 76 5 l77 -3 14 -47z m1188 42 c57 -13 89 -52 80 -99
-4 -20 -19 -52 -33 -71 -15 -19 -28 -41 -29 -50 -1 -8 18 -52 42 -97 l44 -83
-83 0 -82 0 -29 60 c-16 33 -32 60 -35 60 -4 0 -13 -27 -20 -60 l-13 -60 -68
0 c-38 0 -69 3 -69 8 0 4 9 45 20 91 15 61 17 86 9 92 -8 5 -5 34 11 105 12
55 24 102 27 107 6 10 180 8 228 -3z m-1545 -590 c0 -15 -7 -20 -25 -20 -22 0
-25 -4 -25 -39 0 -54 -8 -71 -35 -71 -22 0 -23 3 -19 38 3 20 7 45 9 55 2 11
-3 17 -16 17 -18 0 -26 20 -12 33 3 4 33 7 65 7 51 0 58 -2 58 -20z m149 6 c7
-8 14 -31 16 -52 4 -48 -29 -84 -78 -84 -39 0 -52 12 -61 56 -10 44 32 94 79
94 18 0 38 -6 44 -14z m331 -6 c0 -15 -7 -20 -25 -20 -22 0 -25 -4 -25 -39 0
-55 -8 -71 -36 -71 -21 0 -23 4 -18 25 14 55 11 85 -8 85 -18 0 -25 20 -11 33
3 4 33 7 65 7 51 0 58 -2 58 -20z m90 -6 c0 -31 23 -28 28 4 2 16 10 22 28 22
23 0 24 -3 19 -42 -15 -109 -14 -108 -41 -108 -23 0 -25 3 -19 30 5 23 3 30
-8 30 -8 0 -17 -13 -20 -30 -5 -23 -12 -30 -30 -30 -23 0 -23 1 -16 65 10 77
14 85 40 85 14 0 19 -7 19 -26z m238 9 c-2 -10 -16 -21 -33 -24 -23 -5 -25 -7
-7 -8 33 -2 31 -41 -3 -41 -14 0 -25 -4 -25 -10 0 -5 11 -10 25 -10 18 0 25
-5 25 -20 0 -18 -7 -20 -56 -20 -30 0 -53 4 -50 9 3 4 7 33 10 64 2 31 7 61
11 67 3 5 29 10 56 10 43 0 50 -3 47 -17z m285 -3 c-4 -14 -14 -20 -37 -21
-30 -2 -30 -2 -3 -6 37 -6 39 -43 2 -43 -14 0 -25 -4 -25 -10 0 -5 12 -10 26
-10 19 0 25 -5 22 -17 -2 -14 -15 -19 -57 -21 l-53 -3 5 28 c3 15 9 49 12 76
l6 47 54 0 c48 0 53 -2 48 -20z m116 -2 l8 -23 7 23 c4 13 15 22 27 22 19 0
20 -4 14 -57 -9 -81 -14 -93 -36 -93 -12 0 -24 12 -32 33 l-14 32 -7 -32 c-6
-26 -13 -33 -31 -33 -22 0 -23 3 -15 31 5 18 7 35 5 39 -2 4 0 23 6 43 8 30
15 37 35 37 16 0 27 -7 33 -22z m214 10 c9 -7 19 -30 21 -50 4 -32 1 -41 -25
-63 -22 -17 -42 -25 -70 -25 l-40 0 6 66 c3 37 8 71 11 75 8 13 78 11 97 -3z
m102 -237 c-32 -31 -853 -605 -865 -605 -14 0 -822 532 -845 557 -13 13 1 6
459 -262 208 -122 382 -221 385 -221 4 0 200 121 436 269 237 148 432 270 435
270 2 1 0 -3 -5 -8z"/>
<path d="M2798 2671 c-142 -13 -93 -21 123 -21 123 0 208 4 199 9 -21 12 -231
20 -322 12z"/>
<path d="M2668 2602 c-44 -66 -79 -143 -76 -165 5 -34 65 -49 191 -48 70 1
114 -2 123 -10 11 -9 17 -9 28 0 9 8 53 11 123 10 127 -1 186 14 191 49 4 23
-67 165 -95 192 -9 8 -2 -12 16 -44 17 -33 31 -63 31 -68 0 -4 -128 -8 -285
-8 -157 0 -285 2 -285 5 0 3 11 22 23 43 51 80 62 116 15 44z"/>
<path d="M2685 2588 c-16 -29 -31 -56 -33 -60 -2 -5 116 -8 262 -8 146 0 266
3 266 7 0 4 -12 31 -27 60 l-28 53 -205 0 -205 0 -30 -52z"/>
<path d="M2540 2540 c0 -16 51 -33 63 -21 5 5 6 14 3 20 -9 14 -66 14 -66 1z"/>
<path d="M3235 2540 c-11 -18 5 -28 32 -21 38 10 41 31 4 31 -16 0 -33 -4 -36
-10z"/>
<path d="M2562 2374 c3 -25 8 -30 43 -36 56 -10 115 0 108 18 -5 14 -49 29
-116 40 -38 7 -39 6 -35 -22z"/>
<path d="M3188 2383 c-69 -18 -83 -39 -30 -47 20 -3 55 -2 77 2 34 6 40 11 43
35 4 32 -4 33 -90 10z"/>
<path d="M2730 2370 c-13 -9 -10 -15 18 -41 30 -27 39 -30 89 -27 63 3 87 24
67 56 -9 13 -27 18 -85 20 -41 1 -81 -2 -89 -8z"/>
<path d="M2942 2368 c-7 -7 -12 -19 -12 -28 0 -28 23 -40 77 -40 45 0 58 5 85
30 28 25 31 31 18 40 -21 14 -153 13 -168 -2z"/>
<path d="M2542 2295 c0 -44 3 -70 5 -58 6 30 35 37 92 23 45 -11 48 -13 49
-45 1 -25 -5 -39 -21 -50 -20 -14 -20 -15 -2 -15 11 0 37 5 58 11 l37 10 -30
32 -30 32 217 3 c119 1 218 0 221 -2 2 -3 -8 -20 -23 -38 l-28 -33 24 -6 c13
-4 37 -7 53 -8 l29 -1 -27 21 c-19 15 -24 25 -17 37 4 9 6 22 4 29 -2 7 17 16
52 24 49 11 58 10 72 -3 30 -31 -6 -98 -53 -98 -13 0 -24 -4 -24 -9 0 -13 60
5 80 24 11 12 16 41 17 108 2 62 0 85 -6 71 -11 -25 -58 -37 -137 -35 -35 1
-56 -4 -64 -14 -16 -19 -140 -21 -158 -3 -9 9 -15 9 -24 0 -18 -18 -129 -15
-155 3 -12 9 -37 15 -55 14 -18 -1 -57 1 -86 5 -41 6 -55 13 -62 30 -6 14 -8
-5 -8 -59z"/>
<path d="M2566 2244 c-6 -16 9 -54 28 -66 6 -4 23 -8 37 -8 60 0 60 63 0 80
-49 13 -58 13 -65 -6z"/>
<path d="M3204 2249 c-56 -16 -52 -79 5 -79 34 0 48 10 60 41 7 19 6 30 -2 38
-13 13 -20 13 -63 0z"/>
<path d="M2742 2210 c12 -19 24 -20 183 -20 159 0 171 1 183 20 12 20 10 20
-183 20 -193 0 -195 0 -183 -20z"/>
<path d="M2551 2199 c-1 -9 5 -21 12 -27 19 -16 67 -33 67 -23 0 5 -14 11 -30
15 -19 3 -34 14 -40 28 -6 16 -9 18 -9 7z"/>
<path d="M2541 2150 c4 -23 8 -25 72 -28 37 -2 67 1 67 5 0 4 -23 8 -50 9 -34
1 -57 7 -71 20 -21 19 -21 19 -18 -6z"/>
<path d="M3277 2153 c-12 -12 -33 -18 -67 -18 -28 0 -50 -3 -50 -7 0 -5 29 -8
65 -8 48 0 67 4 71 15 10 26 -1 36 -19 18z"/>
<path d="M3301 1752 c-16 -37 -15 -39 19 -45 14 -2 20 -2 13 0 -6 2 -13 21
-15 41 l-3 37 -14 -33z"/>
<path d="M3685 1809 c-9 -38 -5 -42 29 -30 41 16 30 61 -14 61 -5 0 -11 -14
-15 -31z"/>
<path d="M2342 1307 c-15 -17 -3 -59 15 -55 8 2 14 6 14 11 -1 4 -1 18 -1 32
0 27 -12 32 -28 12z"/>
<path d="M3629 1313 c-5 -27 -4 -63 1 -63 15 0 27 23 22 46 -4 22 -20 34 -23
17z"/></g>
<defs>
<clipPath id="clip0_294_1012">
<rect width="40" height="40" fill="white"/>
</clipPath>
</defs>
</svg>
